<?xml version="1.0" encoding="UTF-8" standalone="no"?>
<svg
   xmlns:dc="http://purl.org/dc/elements/1.1/"
   xmlns:cc="http://creativecommons.org/ns#"
   xmlns:rdf="http://www.w3.org/1999/02/22-rdf-syntax-ns#"
   xmlns:svg="http://www.w3.org/2000/svg"
   xmlns="http://www.w3.org/2000/svg"
   xmlns:sodipodi="http://sodipodi.sourceforge.net/DTD/sodipodi-0.dtd"
   xmlns:inkscape="http://www.inkscape.org/namespaces/inkscape"
   aria-hidden="true"
   focusable="false"
   data-prefix="fad"
   data-icon="leaf-maple"
   class="svg-inline--fa fa-leaf-maple fa-w-16"
   role="img"
   viewBox="0 0 512 512"
   version="1.1"
   id="svg2012"
   sodipodi:docname="leaf-maple-duotone-default.svg"
   inkscape:version="0.92.3 (2405546, 2018-03-11)">
  <metadata
     id="metadata2018">
    <rdf:RDF>
      <cc:Work
         rdf:about="">
        <dc:format>image/svg+xml</dc:format>
        <dc:type
           rdf:resource="http://purl.org/dc/dcmitype/StillImage" />
        <dc:title />
      </cc:Work>
    </rdf:RDF>
  </metadata>
  <defs
     id="defs2016" />
  <sodipodi:namedview
     pagecolor="#ffffff"
     bordercolor="#666666"
     borderopacity="1"
     objecttolerance="10"
     gridtolerance="10"
     guidetolerance="10"
     inkscape:pageopacity="0"
     inkscape:pageshadow="2"
     inkscape:window-width="1290"
     inkscape:window-height="775"
     id="namedview2014"
     showgrid="false"
     inkscape:zoom="0.4609375"
     inkscape:cx="-367.72881"
     inkscape:cy="256"
     inkscape:window-x="0"
     inkscape:window-y="0"
     inkscape:window-maximized="0"
     inkscape:current-layer="svg2012" />
  <g
     class="fa-group"
     id="g2010">
    <path
       class="fa-secondary"
       fill="currentColor"
       d="M504 195.56l-140.83 89.59L428 268.57a17.33 17.33 0 0 1 20.57 21.12l-13.8 25.72 51.31 45.3a17.34 17.34 0 0 1 0 27.07l-51.31 45.3 13.8 25.72A17.33 17.33 0 0 1 428 479.92l-160.19-33L251.94 484c-6 14-25.86 14-31.88 0l-49.14-108 141.86-141.91a24.65 24.65 0 1 0-34.86-34.87L136.06 341.1 28 291.94c-14-6-14-25.87 0-31.87l37.08-15.89L32.08 84a17.34 17.34 0 0 1 21.13-20.59l25.73 13.81 45.3-51.33a17.33 17.33 0 0 1 27.06 0l45.3 51.33 25.73-13.82A17.33 17.33 0 0 1 243.45 84l-16.58 64.84L316.46 8a17.35 17.35 0 0 1 29.5.39l22.33 37.23 88.77-9.86a17.34 17.34 0 0 1 19.15 19.14l-9.87 88.78 37.24 22.34a17.35 17.35 0 0 1 .42 29.54z"
       opacity="0.4"
       id="path2006"
       style="fill:#D3A778;fill-opacity:1;opacity:1" />
    <path
       class="fa-primary"
       fill="currentColor"
       d="M24.67 512a24.61 24.61 0 0 1-17.43-42l270.68-270.78a24.65 24.65 0 1 1 34.86 34.87L42.1 504.82A24.51 24.51 0 0 1 24.67 512z"
       id="path2008"
       style="fill:#750202;fill-opacity:1" />
  </g>
</svg>
