<?xml version="1.0" encoding="UTF-8" standalone="no"?>
<svg
   xmlns:dc="http://purl.org/dc/elements/1.1/"
   xmlns:cc="http://creativecommons.org/ns#"
   xmlns:rdf="http://www.w3.org/1999/02/22-rdf-syntax-ns#"
   xmlns:svg="http://www.w3.org/2000/svg"
   xmlns="http://www.w3.org/2000/svg"
   xmlns:sodipodi="http://sodipodi.sourceforge.net/DTD/sodipodi-0.dtd"
   xmlns:inkscape="http://www.inkscape.org/namespaces/inkscape"
   aria-hidden="true"
   focusable="false"
   data-prefix="fad"
   data-icon="scarecrow"
   class="svg-inline--fa fa-scarecrow fa-w-14"
   role="img"
   viewBox="0 0 448 512"
   version="1.1"
   id="svg835"
   sodipodi:docname="scarecrow-duotone-active.svg"
   inkscape:version="0.92.3 (2405546, 2018-03-11)">
  <metadata
     id="metadata841">
    <rdf:RDF>
      <cc:Work
         rdf:about="">
        <dc:format>image/svg+xml</dc:format>
        <dc:type
           rdf:resource="http://purl.org/dc/dcmitype/StillImage" />
        <dc:title />
      </cc:Work>
    </rdf:RDF>
  </metadata>
  <defs
     id="defs839" />
  <sodipodi:namedview
     pagecolor="#ffffff"
     bordercolor="#666666"
     borderopacity="1"
     objecttolerance="10"
     gridtolerance="10"
     guidetolerance="10"
     inkscape:pageopacity="0"
     inkscape:pageshadow="2"
     inkscape:window-width="1289"
     inkscape:window-height="711"
     id="namedview837"
     showgrid="false"
     inkscape:zoom="1.65625"
     inkscape:cx="275.18048"
     inkscape:cy="384.00578"
     inkscape:window-x="234"
     inkscape:window-y="234"
     inkscape:window-maximized="0"
     inkscape:current-layer="svg835" />
  <g
     class="fa-group"
     id="g833">
    <path
       class="fa-secondary"
       fill="currentColor"
       d="M216.84 414.2L192 401v95a16 16 0 0 0 16 16h32a16 16 0 0 0 16-16v-95l-24.87 13.2a15.08 15.08 0 0 1-14.29 0zM224 0a96 96 0 1 0 96 96 96 96 0 0 0-96-96zm-32 96a16 16 0 1 1 16-16 16 16 0 0 1-16 16zm64 16a16 16 0 1 1 16-16 16 16 0 0 1-16 16z"
       opacity="0.4"
       id="path829"
       style="fill:#daa520;fill-opacity:1;opacity:1" />
    <path
       class="fa-primary"
       fill="currentColor"
       d="M445.75 186.39l-.08-.09-26.39-26.3 18.29-18.3a8 8 0 0 0-5.7-13.7H314.48a96 96 0 0 1-181 0H16a8 8 0 0 0-5.7 13.7L28.72 160 2.34 186.3a8 8 0 0 0 0 11.3L28.72 224l-18.3 18.3a8 8 0 0 0 5.7 13.7h106.09l-26 141.3a16 16 0 0 0 22.9 16.9l32.71-24.2a16 16 0 0 1 17.08-1.3l47.91 25.5a15.08 15.08 0 0 0 14.29 0l47.9-25.5a16 16 0 0 1 17.1 1.3l32.7 24.2a15.93 15.93 0 0 0 22.89-16.9L325.88 256h106.06a8.05 8.05 0 0 0 5.69-13.7L419.28 224l26.29-26.3a8 8 0 0 0 .18-11.31zM256 112a16 16 0 1 0-16-16 16 16 0 0 0 16 16zm-64-16a16 16 0 1 0-16-16 16 16 0 0 0 16 16z"
       id="path831"
       style="fill:#00664f;fill-opacity:0.9464286;opacity:0.73381295" />
  </g>
</svg>
