<?xml version="1.0" encoding="UTF-8" standalone="no"?>
<svg
   xmlns:dc="http://purl.org/dc/elements/1.1/"
   xmlns:cc="http://creativecommons.org/ns#"
   xmlns:rdf="http://www.w3.org/1999/02/22-rdf-syntax-ns#"
   xmlns:svg="http://www.w3.org/2000/svg"
   xmlns="http://www.w3.org/2000/svg"
   xmlns:sodipodi="http://sodipodi.sourceforge.net/DTD/sodipodi-0.dtd"
   xmlns:inkscape="http://www.inkscape.org/namespaces/inkscape"
   aria-hidden="true"
   focusable="false"
   data-prefix="fad"
   data-icon="star-christmas"
   class="svg-inline--fa fa-star-christmas fa-w-16"
   role="img"
   viewBox="0 0 512 512"
   version="1.1"
   id="svg4316"
   sodipodi:docname="star-christmas-duotone-white.svg"
   inkscape:version="0.92.3 (2405546, 2018-03-11)">
  <metadata
     id="metadata4322">
    <rdf:RDF>
      <cc:Work
         rdf:about="">
        <dc:format>image/svg+xml</dc:format>
        <dc:type
           rdf:resource="http://purl.org/dc/dcmitype/StillImage" />
        <dc:title></dc:title>
      </cc:Work>
    </rdf:RDF>
  </metadata>
  <defs
     id="defs4320" />
  <sodipodi:namedview
     pagecolor="#ffffff"
     bordercolor="#666666"
     borderopacity="1"
     objecttolerance="10"
     gridtolerance="10"
     guidetolerance="10"
     inkscape:pageopacity="0"
     inkscape:pageshadow="2"
     inkscape:window-width="917"
     inkscape:window-height="480"
     id="namedview4318"
     showgrid="false"
     inkscape:zoom="0.4609375"
     inkscape:cx="256"
     inkscape:cy="256"
     inkscape:window-x="0"
     inkscape:window-y="0"
     inkscape:window-maximized="0"
     inkscape:current-layer="svg4316" />
  <g
     class="fa-group"
     id="g4314">
    <path
       class="fa-secondary"
       fill="currentColor"
       d="M359.15 334.15l-19.9 5-5 19.9 68.8 55.1c7.5 6 17.2-3.7 11.2-11.2zm-206.2 0L98 403c-6 7.5 3.7 17.2 11.2 11.2l68.8-55.1-5-19.9zM359.15 178l55.1-68.8c6-7.5-3.7-17.2-11.2-11.2l-68.8 55 5 19.9zM153 178l19.9-5 5-19.9L109.05 98c-7.5-6-17.2 3.7-11.2 11.2z"
       opacity="0.4"
       id="path4310"
       style="fill:#ffffff;fill-opacity:1;opacity:0.5" />
    <path
       class="fa-primary"
       fill="currentColor"
       d="M505.25 264.65l-192.6 48.1-48.1 192.5c-2.2 9-15 9-17.2 0l-48.1-192.5-192.5-48.1c-9-2.2-9-15 0-17.2l192.6-48.1 48.1-192.6c2.2-9 15-9 17.2 0l48.2 192.6 192.5 48.1c8.9 2.2 8.9 15-.1 17.2z"
       id="path4312"
       style="fill:#ffffff;fill-opacity:1" />
  </g>
</svg>
